<svg width="844" height="272" viewBox="0 0 844 272" fill="none" xmlns="http://www.w3.org/2000/svg">
<g clip-path="url(#clip0_4_100)">
<path d="M105.125 200L126.375 72H211.125L207.375 94.3125H149.688L144.688 124.812H196.75L193 147.125H140.938L132.188 200H105.125ZM255.453 72L234.203 200H207.578L228.828 72H255.453ZM282.656 201.813C276.573 201.813 271.302 200.75 266.844 198.625C262.427 196.458 259.177 193.25 257.094 189C255.01 184.75 254.49 179.479 255.531 173.188C256.448 167.854 258.177 163.396 260.719 159.812C263.302 156.187 266.448 153.271 270.156 151.062C273.865 148.854 277.969 147.167 282.469 146C287.01 144.833 291.698 144.042 296.531 143.625C302.115 143.042 306.656 142.479 310.156 141.937C313.698 141.396 316.344 140.625 318.094 139.625C319.844 138.583 320.906 137.042 321.281 135V134.625C321.906 130.708 321.177 127.667 319.094 125.5C317.052 123.292 313.781 122.187 309.281 122.187C304.531 122.187 300.49 123.229 297.156 125.312C293.865 127.396 291.51 130.042 290.094 133.25L265.844 131.25C268.01 125.417 271.281 120.375 275.656 116.125C280.073 111.833 285.385 108.542 291.594 106.25C297.802 103.917 304.76 102.75 312.469 102.75C317.802 102.75 322.781 103.375 327.406 104.625C332.073 105.875 336.094 107.812 339.469 110.437C342.885 113.062 345.344 116.437 346.844 120.562C348.385 124.646 348.698 129.542 347.781 135.25L336.969 200H311.719L313.969 186.688H313.219C311.177 189.688 308.677 192.333 305.719 194.625C302.76 196.875 299.365 198.646 295.531 199.937C291.698 201.188 287.406 201.813 282.656 201.813ZM293.344 183.437C297.219 183.437 300.781 182.667 304.031 181.125C307.323 179.542 310.031 177.417 312.156 174.75C314.323 172.083 315.698 169.062 316.281 165.687L317.906 155.5C317.073 156.042 315.865 156.521 314.281 156.937C312.74 157.354 311.052 157.75 309.219 158.125C307.427 158.458 305.615 158.771 303.781 159.062C301.948 159.312 300.302 159.562 298.844 159.812C295.635 160.271 292.76 161 290.219 162C287.677 163 285.615 164.354 284.031 166.063C282.448 167.729 281.469 169.812 281.094 172.312C280.51 175.938 281.365 178.708 283.656 180.625C285.99 182.5 289.219 183.437 293.344 183.437ZM393.625 144.5L384.375 200H357.812L373.813 104H399.125L396.375 120.938H397.438C400.479 115.312 404.771 110.875 410.312 107.625C415.896 104.375 422.25 102.75 429.375 102.75C436.042 102.75 441.604 104.208 446.062 107.125C450.563 110.042 453.729 114.187 455.563 119.562C457.438 124.937 457.75 131.375 456.5 138.875L446.25 200H419.625L429.063 143.625C430.021 137.75 429.271 133.167 426.813 129.875C424.396 126.542 420.5 124.875 415.125 124.875C411.542 124.875 408.25 125.646 405.25 127.187C402.25 128.729 399.729 130.979 397.688 133.937C395.688 136.854 394.333 140.375 393.625 144.5ZM495.797 172.375L501.109 140.437H504.984L541.922 104H572.484L523.234 152.25H516.859L495.797 172.375ZM467.109 200L488.359 72H514.984L493.734 200H467.109ZM527.109 200L505.859 158.187L526.672 139.375L558.297 200H527.109ZM609.094 201.875C599.26 201.875 591.115 199.875 584.656 195.875C578.198 191.833 573.656 186.125 571.031 178.75C568.448 171.333 568.01 162.562 569.719 152.437C571.385 142.562 574.74 133.896 579.781 126.438C584.865 118.979 591.24 113.167 598.906 109C606.573 104.833 615.115 102.75 624.531 102.75C630.865 102.75 636.594 103.771 641.719 105.812C646.885 107.812 651.177 110.854 654.594 114.937C658.01 118.979 660.344 124.042 661.594 130.125C662.885 136.208 662.865 143.333 661.531 151.5L660.344 158.812H579.344L581.906 142.312H637.906C638.531 138.479 638.281 135.083 637.156 132.125C636.031 129.167 634.156 126.854 631.531 125.187C628.906 123.479 625.677 122.625 621.844 122.625C617.927 122.625 614.26 123.583 610.844 125.5C607.427 127.417 604.552 129.937 602.219 133.062C599.927 136.146 598.448 139.5 597.781 143.125L594.844 159.5C594.01 164.542 594.177 168.729 595.344 172.062C596.552 175.396 598.635 177.896 601.594 179.562C604.552 181.187 608.302 182 612.844 182C615.802 182 618.573 181.583 621.156 180.75C623.781 179.917 626.115 178.688 628.156 177.063C630.198 175.396 631.865 173.333 633.156 170.875L657.469 172.5C655.219 178.417 651.802 183.583 647.219 188C642.635 192.375 637.115 195.792 630.656 198.25C624.24 200.667 617.052 201.875 609.094 201.875ZM670.953 200L686.953 104H712.766L709.953 120.75H710.953C713.703 114.792 717.391 110.292 722.016 107.25C726.682 104.167 731.703 102.625 737.078 102.625C738.411 102.625 739.807 102.708 741.266 102.875C742.766 103 744.099 103.208 745.266 103.5L741.266 127.187C740.099 126.771 738.432 126.437 736.266 126.187C734.141 125.896 732.12 125.75 730.203 125.75C726.328 125.75 722.724 126.604 719.391 128.312C716.057 129.979 713.245 132.312 710.953 135.312C708.703 138.312 707.224 141.771 706.516 145.688L697.578 200H670.953Z" fill="white"/>
<path d="M819 24H24V248H819V24Z" stroke="white" stroke-width="24"/>
<path d="M841 3H3V269H841V3Z" stroke="white" stroke-width="6"/>
</g>
<defs>
<clipPath id="clip0_4_100">
<rect width="844" height="272" fill="white"/>
</clipPath>
</defs>
</svg>
